<svg width="577" height="573" viewBox="0 0 577 573" fill="none" xmlns="http://www.w3.org/2000/svg">
<path fill-rule="evenodd" clip-rule="evenodd" d="M557.356 472.536V472.536L555.486 475.429L553.54 478.271L551.522 481.063L549.436 483.804L547.288 486.497L545.08 489.14L542.82 491.736L540.51 494.286L538.155 496.79L535.759 499.252L533.328 501.672L530.864 504.052L528.372 506.395L525.854 508.703L523.314 510.976L520.755 513.217L518.178 515.428L515.585 517.609L512.977 519.761L510.356 521.886L507.722 523.984L505.075 526.054L502.414 528.096L499.738 530.11L497.048 532.094L494.342 534.047L491.62 535.968L488.88 537.855L486.123 539.708L483.346 541.524L480.55 543.302L477.733 545.039L474.896 546.735L472.037 548.386L469.156 549.992L466.253 551.55L463.328 553.06L460.382 554.518L457.414 555.925L454.424 557.279L451.415 558.578L448.385 559.821L445.336 561.009L442.269 562.139L439.185 563.211L436.085 564.225L432.97 565.179L429.841 566.075L426.699 566.912L423.547 567.689L420.384 568.407L417.213 569.065L414.034 569.665L410.85 570.205L407.661 570.688L404.469 571.113L401.276 571.48L398.082 571.791L394.889 572.046L391.699 572.246L388.512 572.393L385.33 572.487L382.154 572.529L378.986 572.521L375.826 572.464L372.676 572.359L369.537 572.209L366.41 572.016L363.296 571.78L360.196 571.504L357.11 571.19L354.04 570.841L350.986 570.457L347.948 570.043L344.928 569.6L341.925 569.13L338.94 568.635L335.974 568.119L333.025 567.584L330.094 567.03L327.181 566.462L324.286 565.88L321.409 565.286L318.548 564.683L315.704 564.07L312.875 563.45L310.062 562.823L307.264 562.189L304.48 561.549L301.71 560.902L298.953 560.248L296.208 559.585L293.476 558.912L290.756 558.227L288.047 557.529L285.351 556.814L282.666 556.081L279.994 555.326L277.335 554.546L274.689 553.74L272.058 552.903L269.442 552.034L266.841 551.13L264.258 550.19L261.692 549.213L259.145 548.197L256.618 547.14L254.112 546.041L251.63 544.898L249.171 543.709L246.738 542.473L244.333 541.19L241.956 539.857L239.61 538.476L237.295 537.044L235.015 535.561L232.769 534.027L230.561 532.44L228.392 530.8L226.265 529.106L224.181 527.357L222.141 525.555L220.148 523.7L218.203 521.792L216.308 519.832L214.463 517.822L212.67 515.765L210.928 513.663L209.238 511.518L207.601 509.334L206.014 507.114L204.479 504.863L202.992 502.584L201.553 500.283L200.16 497.964L198.809 495.632L197.498 493.292L196.224 490.949L194.983 488.609L193.77 486.276L192.582 483.957L191.413 481.656L190.258 479.377L189.113 477.127L187.971 474.908L186.827 472.726L185.674 470.584L184.508 468.486L183.322 466.434L182.11 464.432L180.865 462.482L179.583 460.585L178.257 458.743L176.882 456.957L175.453 455.226L173.964 453.551L172.411 451.93L170.789 450.363L169.094 448.848L167.323 447.384L165.472 445.966L163.538 444.593L161.519 443.261L159.414 441.967L157.22 440.706L154.937 439.475L152.563 438.27L150.099 437.084L147.545 435.915L144.902 434.757L142.17 433.606L139.35 432.455L136.445 431.301L133.455 430.139L130.384 428.964L127.233 427.771L124.004 426.555L120.701 425.313L117.326 424.039L113.882 422.729L110.372 421.38L106.8 419.987L103.169 418.546L99.482 417.054L95.7438 415.507L91.9588 413.902L88.1319 412.234L84.2686 410.5L80.3753 408.697L76.4592 406.821L72.5281 404.869L68.5903 402.839L64.6548 400.726L60.731 398.529L56.8291 396.245L52.9598 393.873L49.1348 391.41L45.3665 388.857L41.6679 386.21L38.0522 383.472L34.5331 380.64L31.1239 377.718L27.8382 374.706L24.6892 371.606L21.6897 368.421L18.8523 365.154L16.1885 361.81L13.7096 358.393L11.4258 354.909L9.34655 351.362L7.48026 347.759L5.83442 344.106L4.41549 340.41L3.2288 336.679L2.27859 332.92L1.56797 329.14L1.0989 325.347L0.872221 321.549L0.887609 317.753L1.14359 313.967L1.6376 310.199L2.36599 306.456L3.32401 302.744L4.50595 299.072L5.905 295.444L7.5135 291.868L9.32286 288.348L11.3236 284.89L13.5056 281.499L15.8578 278.177L18.3686 274.929L21.0258 271.758L23.8167 268.664L26.7281 265.65L29.7464 262.716L32.8578 259.863L36.0482 257.089L39.3033 254.392L42.6089 251.772L45.9507 249.225L49.3145 246.747L52.6865 244.334L56.053 241.982L59.4005 239.686L62.7163 237.438L65.988 235.234L69.2038 233.066L72.3527 230.926L75.4242 228.808L78.4089 226.704L81.298 224.605L84.084 222.503L86.7599 220.39L89.3202 218.258L91.7602 216.1L94.0764 213.906L96.2663 211.669L98.3288 209.382L100.264 207.039L102.072 204.633L103.756 202.157L105.32 199.608L106.767 196.981L108.103 194.272L109.334 191.479L110.469 188.599L111.514 185.632L112.48 182.578L113.376 179.438L114.212 176.214L115 172.908L115.749 169.525L116.472 166.069L117.179 162.545L117.882 158.959L118.592 155.318L119.318 151.628L120.071 147.897L120.86 144.131L121.69 140.336L122.569 136.516L123.502 132.678L124.492 128.826L125.543 124.963L126.657 121.091L127.836 117.214L129.082 113.334L130.396 109.453L131.778 105.574L133.231 101.699L134.754 97.829L136.349 93.9677L138.016 90.1173L139.757 86.2806L141.573 82.4607L143.464 78.661L145.432 74.8852L147.479 71.1376L149.604 67.4225L151.811 63.745L154.099 60.1101L156.47 56.5236L158.926 52.9913L161.466 49.5194L164.093 46.1144L166.806 42.783L169.605 39.532L172.492 36.3686L175.465 33.2996L178.525 30.3323L181.671 27.4736L184.901 24.7306L188.214 22.11L191.608 19.6185L195.081 17.2623L198.631 15.0475L202.254 12.9796L205.948 11.0637L209.708 9.30461L213.53 7.70641L217.411 6.27267L221.346 5.00634L225.33 3.90974L229.358 2.98456L233.426 2.23177L237.527 1.65169L241.656 1.24393L245.808 1.00743L249.978 0.940466L254.159 1.04064L258.347 1.30493L262.536 1.72973L266.721 2.31089L270.897 3.04371L275.058 3.92306L279.202 4.94341L283.322 6.09885L287.415 7.38324L291.477 8.79018L295.504 10.3132L299.494 11.9456L303.443 13.6809L307.348 15.5126L311.208 17.4342L315.02 19.4395L318.782 21.5227L322.493 23.6781L326.151 25.9005L329.756 28.1849L333.306 30.527L336.801 32.9226L340.239 35.3683L343.621 37.8607L346.946 40.3971L350.213 42.9749L353.422 45.5921L356.573 48.2464L359.664 50.9359L362.697 53.6586L365.671 56.412L368.586 59.1935L371.443 61.9998L374.241 64.8273L376.982 67.6715L379.667 70.527L382.298 73.3873L384.877 76.2451L387.408 79.0922L389.893 81.9196L392.338 84.7177L394.747 87.4761L397.126 90.185L399.48 92.8351L401.816 95.4176L404.141 97.9248L406.46 100.35L408.78 102.686L411.107 104.928L413.449 107.071L415.812 109.113L418.203 111.049L420.627 112.878L423.09 114.6L425.598 116.215L428.157 117.723L430.77 119.127L433.444 120.43L436.18 121.635L438.982 122.747L441.854 123.771L444.796 124.715L447.81 125.584L450.896 126.387L454.054 127.132L457.282 127.827L460.58 128.482L463.943 129.106L467.369 129.709L470.853 130.301L474.391 130.892L477.976 131.493L481.603 132.114L485.265 132.764L488.954 133.453L492.662 134.191L496.382 134.987L500.103 135.85L503.819 136.787L507.518 137.806L511.192 138.914L514.832 140.118L518.428 141.422L521.97 142.832L525.45 144.352L528.859 145.984L532.189 147.731L535.43 149.596L538.576 151.577L541.619 153.677L544.552 155.893L547.37 158.225L550.068 160.67L552.64 163.226L555.083 165.889L557.393 168.656L559.568 171.521L561.606 174.481L563.506 177.529L565.268 180.661L566.892 183.87L568.38 187.15L569.731 190.496L570.95 193.902L572.038 197.36L572.999 200.866L573.837 204.412L574.554 207.993L575.157 211.604L575.648 215.238L576.034 218.89L576.318 222.556L576.507 226.23L576.605 229.908L576.618 233.586L576.552 237.259L576.411 240.925L576.202 244.579L575.932 248.218L575.606 251.839L575.23 255.44L574.813 259.018L574.36 262.572L573.881 266.098L573.382 269.595L572.873 273.063L572.359 276.5L571.85 279.906L571.352 283.281L570.872 286.625L570.416 289.94L569.988 293.226L569.595 296.484L569.238 299.718L568.922 302.929L568.649 306.119L568.422 309.29L568.242 312.445L568.111 315.587L568.029 318.718L567.997 321.842L568.014 324.96L568.08 328.076L568.194 331.192L568.353 334.311L568.557 337.435L568.802 340.568L569.085 343.711L569.403 346.866L569.753 350.036L570.13 353.222L570.529 356.425L570.945 359.648L571.374 362.89L571.81 366.154L572.247 369.438L572.678 372.744L573.099 376.071L573.502 379.42L573.881 382.788L574.231 386.175L574.543 389.58L574.813 393L575.035 396.435L575.201 399.882L575.306 403.338L575.346 406.8L575.314 410.267L575.206 413.734L575.017 417.198L574.743 420.657L574.38 424.107L573.926 427.544L573.377 430.964L572.732 434.365L571.988 437.743L571.145 441.094L570.202 444.416L569.159 447.705L568.016 450.958L566.774 454.173L565.434 457.347L563.999 460.478L562.471 463.564L560.852 466.603L559.146 469.594L557.356 472.536" fill="url(#paint0_linear_103_5)"/>
<defs>
<linearGradient id="paint0_linear_103_5" x1="148.878" y1="249.906" x2="698.999" y2="346.806" gradientUnits="userSpaceOnUse">
<stop stop-color="#AD44FB"/>
<stop offset="1" stop-color="#31B3FC"/>
</linearGradient>
</defs>
</svg>
