<svg width="503" height="508" viewBox="0 0 503 508" fill="none" xmlns="http://www.w3.org/2000/svg">
<path fill-rule="evenodd" clip-rule="evenodd" d="M498.682 243.347L497.806 245.705L496.856 248.046L495.836 250.368L494.748 252.671L493.595 254.952L492.378 257.211L491.102 259.447L489.769 261.659L488.382 263.847L486.945 266.008L485.462 268.144L483.937 270.254L482.374 272.337L480.777 274.393L479.15 276.423L477.498 278.427L475.825 280.405L474.135 282.357L472.434 284.285L470.724 286.19L469.012 288.072L467.3 289.933L465.593 291.774L463.896 293.596L462.211 295.402L460.543 297.192L458.896 298.969L457.273 300.735L455.677 302.491L454.111 304.24L452.578 305.984L451.082 307.726L449.623 309.467L448.205 311.211L446.83 312.959L445.498 314.714L444.213 316.478L442.974 318.255L441.783 320.046L440.64 321.854L439.547 323.681L438.502 325.53L437.507 327.403L436.56 329.303L435.662 331.231L434.81 333.19L434.004 335.181L433.241 337.207L432.521 339.269L431.842 341.368L431.199 343.506L430.592 345.684L430.017 347.903L429.472 350.164L428.952 352.467L428.455 354.814L427.977 357.203L427.514 359.636L427.063 362.111L426.62 364.629L426.18 367.19L425.74 369.791L425.296 372.433L424.842 375.114L424.376 377.832L423.892 380.587L423.388 383.376L422.858 386.198L422.299 389.05L421.706 391.93L421.076 394.836L420.405 397.766L419.689 400.716L418.926 403.684L418.11 406.666L417.24 409.66L416.311 412.663L415.322 415.672L414.269 418.683L413.15 421.692L411.962 424.698L410.704 427.695L409.373 430.681L407.968 433.652L406.487 436.606L404.93 439.537L403.294 442.444L401.58 445.323L399.786 448.171L397.912 450.983L395.959 453.758L393.925 456.492L391.812 459.183L389.62 461.827L387.348 464.421L384.999 466.964L382.574 469.452L380.072 471.883L377.497 474.255L374.848 476.566L372.127 478.812L369.336 480.992L366.476 483.103L363.55 485.142L360.558 487.108L357.502 488.997L354.386 490.808L351.209 492.538L347.976 494.186L344.688 495.748L341.347 497.224L337.957 498.611L334.519 499.908L331.037 501.113L327.512 502.225L323.949 503.241L320.35 504.162L316.718 504.986L313.056 505.711L309.368 506.338L305.655 506.865L301.923 507.293L298.174 507.62L294.41 507.847L290.637 507.974L286.856 508L283.071 507.926L279.285 507.752L275.503 507.48L271.726 507.108L267.958 506.638L264.203 506.072L260.463 505.409L256.741 504.65L253.042 503.798L249.366 502.854L245.719 501.819L242.101 500.696L238.517 499.486L234.968 498.193L231.458 496.818L227.988 495.365L224.56 493.838L221.178 492.238L217.841 490.571L214.553 488.838L211.314 487.045L208.126 485.195L204.99 483.292L201.907 481.34L198.876 479.343L195.899 477.307L192.976 475.234L190.106 473.131L187.29 471L184.526 468.847L181.813 466.677L179.152 464.493L176.54 462.299L173.975 460.101L171.457 457.903L168.983 455.708L166.552 453.522L164.16 451.347L161.805 449.187L159.486 447.047L157.198 444.929L154.94 442.837L152.708 440.775L150.498 438.744L148.308 436.748L146.135 434.789L143.975 432.868L141.824 430.989L139.68 429.153L137.539 427.361L135.397 425.615L133.251 423.914L131.099 422.261L128.936 420.654L126.759 419.095L124.567 417.583L122.355 416.118L120.121 414.698L117.863 413.324L115.578 411.993L113.264 410.704L110.919 409.456L108.542 408.246L106.131 407.072L103.685 405.932L101.204 404.822L98.6867 403.74L96.1346 402.682L93.5479 401.644L90.928 400.622L88.2762 399.612L85.5945 398.61L82.8854 397.611L80.1516 396.611L77.3962 395.607L74.6226 394.592L71.8348 393.563L69.0368 392.517L66.2331 391.447L63.4283 390.352L60.6274 389.226L57.8354 388.066L55.0575 386.868L52.2993 385.63L49.5662 384.348L46.8637 383.019L44.1974 381.642L41.5729 380.213L38.9956 378.732L36.4709 377.196L34.004 375.604L31.6 373.956L29.2637 372.252L26.9997 370.49L24.8121 368.671L22.7049 366.797L20.6814 364.866L18.7449 362.882L16.8978 360.844L15.1426 358.756L13.4813 356.618L11.9156 354.434L10.4469 352.204L9.07634 349.932L7.80462 347.619L6.63216 345.269L5.55903 342.883L4.58497 340.466L3.70936 338.019L2.93127 335.546L2.24943 333.048L1.66225 330.531L1.16782 327.995L0.763949 325.444L0.448134 322.881L0.217603 320.309L0.0693192 317.73L0 315.147L0.00613261 312.563L0.0839929 309.979L0.229665 307.4L0.439059 304.825L0.707938 302.259L1.03193 299.702L1.40656 297.156L1.82728 294.624L2.28945 292.105L2.78841 289.603L3.3195 287.118L3.87804 284.65L4.45939 282.201L5.05897 279.771L5.67228 277.36L6.29489 274.97L6.92252 272.599L7.55101 270.248L8.17637 267.917L8.79476 265.604L9.40256 263.311L9.99636 261.035L10.5729 258.776L11.1294 256.533L11.6629 254.305L12.1712 252.091L12.6519 249.89L13.1033 247.7L13.5237 245.519L13.9117 243.347L14.2664 241.183L14.587 239.023L14.8731 236.868L15.1246 234.715L15.3415 232.562L15.5244 230.409L15.6737 228.254L15.7902 226.095L15.8745 223.931L15.9272 221.761L15.9492 219.582L15.9411 217.395L15.9039 215.196L15.8384 212.986L15.7457 210.762L15.627 208.524L15.4833 206.27L15.3161 203.999L15.1266 201.709L14.9165 199.401L14.6874 197.073L14.441 194.723L14.179 192.352L13.9036 189.958L13.6166 187.54L13.3203 185.098L13.0168 182.632L12.7085 180.14L12.3978 177.623L12.087 175.08L11.7789 172.511L11.4758 169.915L11.1805 167.294L10.8957 164.647L10.624 161.973L10.3681 159.274L10.1309 156.55L9.91495 153.801L9.72309 151.028L9.558 148.232L9.42237 145.413L9.31887 142.572L9.25016 139.71L9.21893 136.828L9.22784 133.927L9.27956 131.009L9.37675 128.075L9.522 125.126L9.71791 122.164L9.967 119.19L10.2717 116.208L10.6346 113.217L11.0578 110.221L11.5437 107.22L12.0944 104.218L12.7119 101.217L13.3984 98.2185L14.1555 95.2249L14.985 92.2388L15.8885 89.2624L16.8676 86.2983L17.9234 83.3489L19.0573 80.4166L20.2703 77.5042L21.5633 74.614L22.937 71.7486L24.392 68.9106L25.9288 66.1025L27.5478 63.3269L29.2489 60.5861L31.0322 57.8827L32.8976 55.2191L34.8447 52.5978L36.873 50.021L38.9819 47.491L41.1706 45.0102L43.4382 42.5806L45.7836 40.2043L48.2056 37.8834L50.7029 35.6198L53.2741 33.4153L55.9175 31.2717L58.6314 29.1907L61.414 27.1739L64.2635 25.2226L67.1777 23.3384L70.1546 21.5223L73.192 19.7756L76.2875 18.0994L79.4389 16.4945L82.6437 14.9618L85.8994 13.5019L89.2036 12.1154L92.5536 10.8029L95.9468 9.56459L99.3806 8.40082L102.852 7.31168L106.359 6.29723L109.899 5.35754L113.469 4.49277L117.066 3.7031L120.689 2.98877L124.335 2.35006L128.002 1.78727L131.687 1.3007L135.388 0.890702L139.103 0.55759L142.829 0.301683L146.565 0.123278L150.308 0.0226421L154.056 0L157.806 0.0555274L161.557 0.18934L165.306 0.401482L169.05 0.691922L172.788 1.06054L176.517 1.50711L180.234 2.03133L183.937 2.63275L187.625 3.31083L191.294 4.0649L194.942 4.89414L198.568 5.79764L202.168 6.77432L205.74 7.82296L209.283 8.94223L212.794 10.1306L216.271 11.3865L219.711 12.7081L223.114 14.0936L226.476 15.5408L229.797 17.0477L233.074 18.6118L236.307 20.2309L239.492 21.9024L242.63 23.6237L245.719 25.392L248.757 27.2045L251.744 29.0583L254.678 30.9505L257.56 32.8779L260.388 34.8375L263.163 36.8261L265.883 38.8403L268.55 40.8771L271.162 42.933L273.72 45.0048L276.225 47.0892L278.676 49.1828L281.076 51.2824L283.424 53.3847L285.722 55.4865L287.97 57.5845L290.171 59.6756L292.325 61.7568L294.435 63.825L296.501 65.8773L298.527 67.911L300.513 69.9233L302.462 71.9115L304.377 73.8732L306.259 75.8061L308.111 77.708L309.935 79.5766L311.734 81.4102L313.511 83.207L315.269 84.9653L317.009 86.6836L318.735 88.3609L320.45 89.9958L322.156 91.5876L323.856 93.1354L325.552 94.6388L327.249 96.0974L328.947 97.5108L330.65 98.8793L332.36 100.203L334.08 101.482L335.813 102.717L337.559 103.909L339.323 105.059L341.105 106.167L342.907 107.235L344.732 108.264L346.581 109.257L348.456 110.214L350.357 111.137L352.286 112.028L354.245 112.89L356.233 113.724L358.251 114.532L360.301 115.318L362.383 116.082L364.496 116.827L366.642 117.556L368.821 118.27L371.032 118.972L373.276 119.663L375.552 120.347L377.86 121.026L380.199 121.701L382.57 122.375L384.97 123.05L387.4 123.728L389.858 124.413L392.343 125.105L394.854 125.807L397.389 126.522L399.948 127.251L402.527 127.997L405.125 128.761L407.741 129.546L410.372 130.354L413.016 131.186L415.671 132.045L418.334 132.932L421.003 133.848L423.676 134.796L426.349 135.778L429.02 136.793L431.687 137.845L434.346 138.933L436.995 140.059L439.631 141.225L442.251 142.43L444.852 143.677L447.431 144.964L449.986 146.294L452.514 147.667L455.011 149.082L457.474 150.541L459.901 152.043L462.289 153.588L464.633 155.178L466.933 156.811L469.184 158.487L471.384 160.206L473.529 161.968L475.618 163.772L477.646 165.617L479.613 167.503L481.514 169.429L483.347 171.394L485.111 173.396L486.802 175.436L488.419 177.511L489.959 179.621L491.42 181.764L492.801 183.938L494.099 186.143L495.313 188.375L496.442 190.635L497.484 192.92L498.439 195.228L499.304 197.558L500.079 199.907L500.764 202.274L501.358 204.657L501.86 207.054L502.271 209.463L502.59 211.882L502.818 214.309L502.954 216.741L503 219.178L502.955 221.617L502.822 224.056L502.599 226.493L502.29 228.927L501.894 231.354L501.414 233.775L500.851 236.186L500.207 238.586L499.483 240.974L498.682 243.347Z" fill="url(#paint0_linear_8_23)"/>
<defs>
<linearGradient id="paint0_linear_8_23" x1="1070.86" y1="901.16" x2="745.103" y2="1288.26" gradientUnits="userSpaceOnUse">
<stop stop-color="#82BBFF"/>
<stop offset="1" stop-color="#23F39C"/>
</linearGradient>
</defs>
</svg>
